<svg viewBox="0 0 27.727 20" xmlns="http://www.w3.org/2000/svg">
<g fill="#f2a900" transform="matrix(.19884 0 0 .19884 -7.481 -12.847)">
<path d="m172.81 162.75h-130.92l.000706-19.234h130.92zm4.2577-14.975v-2.4634h-1.8059v-4.2474h-135.82v4.2474h-1.8161v2.4634h1.8161v10.715h-1.8161v2.4624h1.8161v4.2503h135.82v-4.2503h1.8059v-2.4624h-1.8059v-10.715z"/>
<path d="m164.19 148.53v5.0218l-.62759-1.2675-1.9667-3.7543h-1.7148v9.198h1.9018v-4.9516l.66852 1.2802 2.0214 3.6714h1.5924v-9.198z"/>
<path d="m151.93 151.03v4.2012c0 .60396-.36054.96485-.96485.96485-.59654 0-.9525-.36089-.9525-.96485v-4.2012c0-.60396.35596-.9652.9525-.9652.60431 0 .96485.36124.96485.9652m-.96485-2.7174c-.91687 0-1.6898.27552-2.2348.79728-.52952.5073-.80998 1.209-.80998 2.0295v3.9822c0 1.7247 1.1952 2.8402 3.0448 2.8402 1.8486 0 3.0441-1.1155 3.0441-2.8402v-3.9822c0-1.717-1.1956-2.8268-3.0441-2.8268"/>
<path d="m139.97 157.73h2.0648v-9.198h-2.0648z"/>
<path d="m128.51 150.31h1.9639v7.4189h2.0648v-7.4189h1.9505v-1.7791h-5.9792z"/>
<path d="m121.38 154.37h-1.1956l.6223-2.9654zm-1.681-5.8378-2.1541 9.1987h1.9466l.38171-1.8002h1.7889l.38206 1.8002h2.069l-2.141-9.1987z"/>
<path d="m108.72 150.18h1.0876c.43568 0 .63818.21555.63818.6791v1.0774c0 .50024-.2286.73343-.71967.73343h-1.0061zm3.7095 1.7156v-1.0908c0-1.4196-.89888-2.2666-2.4028-2.2666h-3.3715v9.198h2.0648v-3.5465h.46143l1.2954 3.5465h2.1424l-1.4676-3.8012c.84807-.31433 1.2778-.99978 1.2778-2.0394"/>
<path d="m98.701 151.03v4.2012c0 .60396-.36054.96485-.96555.96485-.59584 0-.95144-.36089-.95144-.96485v-4.2012c0-.60396.3556-.9652.95144-.9652.60501 0 .96555.36124.96555.9652m-.96555-2.7174c-.91687 0-1.6891.27552-2.2341.79728-.52952.5073-.81068 1.209-.81068 2.0295v3.9822c0 1.7247 1.1956 2.8402 3.0448 2.8402 1.8489 0 3.0445-1.1155 3.0445-2.8402v-3.9822c0-1.717-1.1956-2.8268-3.0445-2.8268"/>
<path d="m85.45 150.18h1.0478c.44062 0 .63747.21766.63747.70661v1.2132c0 .48895-.19685.70661-.63747.70661h-1.0478zm1.2795-1.6418h-3.3443v9.198h2.0648v-3.369h1.2795c1.4961 0 2.389-.8576 2.389-2.2941v-1.2277c0-1.445-.89288-2.3072-2.389-2.3072"/>
<path d="m73.926 150.18h1.0876c.43568 0 .63818.21555.63818.6791v1.0774c0 .50024-.2286.73343-.71967.73343h-1.0061zm3.7091 1.7156v-1.0908c0-1.4196-.89852-2.2666-2.4024-2.2666h-3.3722v9.198h2.0655v-3.5465h.46143l1.2954 3.5465h2.1424l-1.4676-3.8012c.84772-.31433 1.2774-.99978 1.2774-2.0394"/>
<path d="m64.182 151.03v4.2012c0 .60396-.36019.96485-.96485.96485-.59655 0-.95215-.36089-.95215-.96485v-4.2012c0-.60396.3556-.9652.95215-.9652.60466 0 .96485.36124.96485.9652m-.96485-2.7174c-.91758 0-1.6898.27552-2.2345.79728-.52987.5073-.81033 1.209-.81033 2.0295v3.9822c0 1.7247 1.1949 2.8402 3.0448 2.8402 1.8489 0 3.0445-1.1155 3.0445-2.8402v-3.9822c0-1.717-1.1956-2.8268-3.0445-2.8268"/>
<path d="m51.623 148.3c-1.8535 0-3.0988 1.1522-3.0988 2.8667v3.9282c0 1.7149 1.2453 2.8674 3.0988 2.8674 1.8016 0 2.9214-1.0361 2.9214-2.7037v-.94403h-1.8606v.90311c0 .6223-.37641.97931-1.0329.97931-.64735 0-1.034-.35066-1.034-.93839v-4.2418c0-.59584.38664-.95144 1.034-.95144.65652 0 1.0329.35701 1.0329.97896v.90276h1.8606v-.94333c0-1.6676-1.1197-2.7037-2.9214-2.7037"/>
<path d="m173.17 92.837h-11.195c-.55597 0-1.0104.45508-1.0111 1.0111v7.7396c0 .55528.4512 1.0054 1.0061 1.0054h.45121c.55492 0 1.0061.45085 1.0061 1.0061v21.259c0 .55492-.4512 1.0058-1.0061 1.0058l-4.033-.00071c-.55633 0-1.0065-.45014-1.0065-1.0051v-49.696c0-.55527.45014-1.0054 1.0065-1.0054h5.528c.55527 0 1.0061.45014 1.0061 1.0054v5.7298c0 .55598.45015 1.0061 1.0065 1.0061h7.1635c.55492 0 1.0834-.45014 1.0834-1.0061v-12.677c0-1.9784-1.6034-3.5821-3.5814-3.5821h-18.657c-3.2974 0-5.9708 2.6734-5.9708 5.9704v58.879c0 3.4618 2.8067 6.2685 6.2692 6.2685h14.816c3.9335 0 7.1233-3.3408 7.1233-7.4627v-34.446c0-.55598-.45014-1.0061-1.0061-1.0061"/>
<path d="m128.69 124.61c0 .6798-.55174 1.2316-1.2316 1.2316h-3.0476c-.68016 0-1.2312-.55175-1.2312-1.2316v-19.751c0-.6798.55104-1.2316 1.2312-1.2316h3.0476c.68051 0 1.2316.55175 1.2316 1.2316zm-5.5104-49.245c0-.68016.55104-1.2312 1.2319-1.2312h2.945c.68016 0 1.2312.55104 1.2312 1.2312v16.559c0 .68016-.55103 1.2312-1.2319 1.2312h-2.9443c-.68086 0-1.2319-.55104-1.2319-1.2312zm16.756 27.347c-.0346-.15487-.0744-.30798-.12277-.46003-.56339-1.8009-1.9946-2.9108-3.2068-4.2584-.23883-.266-.47202-.53658-.70556-.80574.0289.03246.42545-.13264.4752-.15134.16157-.06068.31961-.13053.47272-.20849.9913-.50624 1.8013-1.5057 2.1093-2.5746.0208-.07197.0395-.14358.0547-.21625.13194-.61666.1023-1.2753.11747-1.9025.006-.24589.0123-.49177.0173-.73731.0109-.58032.0201-1.1606.0275-1.7406.008-.67698.0145-1.3529.0201-2.0295.006-.74824.0109-1.4961.0145-2.244.004-.79269.007-1.5854.009-2.3791.003-.81209.004-1.6249.005-2.4377.0007-.80574.001-1.6125.001-2.4194l-.002-2.3234c-.00071-.7172-.002-1.4337-.004-2.1509-.002-.63324-.004-1.2665-.005-1.8997-.001-.52493-.003-1.0485-.005-1.573-.001-.38947-.002-.77929-.004-1.168-.001-.22931-.002-.45791-.004-.68651 0-.05045-.00071-.10125-.00071-.15169 0-1.9787-1.6041-3.5825-3.5821-3.5825h-21.956c-.67945 0-1.2312.55139-1.2312 1.2308v25.629c0 .6798-.55175 1.2308-1.2316 1.2308-.68015 0-1.2312.55174-1.2312 1.2319v7.4055c0 .68016.55104 1.2312 1.2312 1.2312.6798 0 1.2316.55104 1.2316 1.2316v30.695c0 .68051.6283 1.2323 1.3088 1.2323h18.915c4.1003 0 7.4263-3.3069 7.4612-7.3985 0 0-.01-19.573.0116-22.841.006-.92957.01-1.875-.19191-2.7781"/>
<path d="m105.71 66.064c0-.80186-.64911-1.451-1.4517-1.451h-8.5115c-.80186-.000706-1.451.64911-1.451 1.451v54.841l-.000705 3.4456c0 .82056-.67134 1.4922-1.4922 1.4922h-4.1688c-.82021 0-1.4922-.67169-1.4922-1.4922v-3.4456l-.000706-54.841c0-.80186-.64911-1.4517-1.4503-1.451h-8.5122c-.80257 0-1.4517.64911-1.4517 1.451 0 0 .000705 58.705.000705 60.23 0 1.9406-.02364 3.8978.96555 5.6459.39052.68897.88653 1.3106 1.4665 1.8412.14182.12876.28963.25117.44062.37006.10866.0843.21908.16651.33302.24518.06279.0441.1277.0875.19262.12982.768.49918 1.632.86325 2.5601 1.0534.48542.0991.98884.15169 1.5042.15169h15.056c.51541 0 1.0188-.0526 1.5042-.15169.92816-.19015 1.7928-.55422 2.5601-1.0534.0649-.0423.12982-.0857.19261-.12982.11324-.0787.22437-.16087.33267-.24518.15134-.11889.29845-.2413.44097-.37006.58068-.53058 1.0756-1.1522 1.4665-1.8412.9899-1.748.96626-3.7052.96626-5.6459z"/>
<path d="m57.619 95.423c0 .64488-.52282 1.167-1.1673 1.167h-3.0667c-.64452 0-1.1673-.52211-1.1673-1.167v-19.754c0-.64488.52282-1.1677 1.1673-1.1677h3.0667c.64452 0 1.1673.52282 1.1673 1.1677zm11.365-26.631c.000705-2.3075-1.8708-4.179-4.1787-4.179h-22.835c-.64488 0-1.1677.52282-1.1677 1.168v29.642c0 .64488-.52211 1.167-1.1673 1.167h-.1277c-.64417 0-1.167.52282-1.167 1.168v8.1372c0 .64488.52211 1.167 1.1663 1.167h.12841c.64523 0 1.1673.52282 1.1673 1.168v24.614c0 1.6485 1.336 2.9848 2.9852 2.9848h5.4441c1.6485 0 2.9852-1.3363 2.9852-2.9848v-25.185c0-.32949.2674-.5976.5969-.5976h7.173c2.4172 0 5.219.37359 7.2937-1.4323 1.276-1.1105 1.6344-2.8307 1.7198-4.4708 0-1.9318-.01693-32.367-.01693-32.367"/>
</g>
</svg>